<svg height="256" viewBox="0 0 256 256" width="256" xmlns="http://www.w3.org/2000/svg"><g fill="none" fill-rule="evenodd"><circle cx="128" cy="128" fill="#6128a1" r="128"/><path d="m195.677889 82.4164013c-9.984445.2208079-19.36196.5934156-28.132826 1.1178344-8.770866.5244187-17.23821 1.2282333-25.402286 2.1114649-1.599718 3.3121185-3.268364 7.093397-5.005988 11.3439491-1.737624 4.2505523-3.516594 9.1358533-5.336963 14.6560513 8.053752-.938434 15.983268-1.656049 23.788787-2.152867 7.805519-.496817 15.624711-.800424 23.457811-.910828l-13.569951 32.872612h-5.04736c-6.619521-.110404-13.404429.0966-20.354926.621019-6.950498.524419-14.1767 1.338636-21.678824 2.442675-4.799153 9.881154-9.143149 19.651756-13.032118 29.312102s-7.5710223 19.51375-11.046271 29.56051l-35.910724 2.484076c7.2263109-20.203923 14.8524367-40.117736 22.8786064-59.742038s16.5073043-39.096507 25.4436586-58.4171977l-12.9080026-.4968153 12.9080026-31.2165605c20.18954-.6072217 38.861826-1.4214386 56.017419-2.4426751 17.155593-1.0212366 33.042206-2.2494621 47.660316-3.6847134z" fill="#fff" fill-rule="nonzero"/></g></svg>